<?xml version="1.0" encoding="utf-8"?>
<!-- Generator: Adobe Illustrator 16.0.0, SVG Export Plug-In . SVG Version: 6.00 Build 0)  -->
<!DOCTYPE svg PUBLIC "-//W3C//DTD SVG 1.1//EN" "http://www.w3.org/Graphics/SVG/1.1/DTD/svg11.dtd">
<svg version="1.1" id="Layer_1" xmlns="http://www.w3.org/2000/svg" xmlns:xlink="http://www.w3.org/1999/xlink" x="0px" y="0px"
	 width="512px" height="512px" viewBox="0 0 512 512" enable-background="new 0 0 512 512" xml:space="preserve">
<path fill="#030303" d="M379.319,449.804c-21.397-22.959-138.017-148.502-174.651-196.339c-1.381-1.802-2.919-3.779-4.57-5.899
	c-14.023-18.016-37.494-48.172-37.494-67.366c0-48.354,9.682-89.36,28-118.586c17.518-27.95,41.288-42.723,68.739-42.723
	c25.093,0,49.018,18.589,67.366,52.345c16.776,30.861,26.79,71.113,26.79,107.676c0,6.655-24.718,44.918-41.536,69.347
	l-48.949-51.63c4.272-4.723,15.866-17.829,26.75-32.652c18.669-25.425,26.436-43.701,23.087-54.317
	c-4.869-15.423-28.982-27.053-56.092-27.053c-35.871,0-54.43,11.08-59.836,21.449c-8.725,16.718,7.163,40.875,35.626,74.433
	c52.535,61.937,175.977,175.473,191.299,189.51l-44.354,81.096L379.319,449.804z M87.125,366.685l112.551-103.978l49.936,60.845
	l-117.55,122.071L87.125,366.685z"/>
</svg>
