<?xml version="1.0" encoding="utf-8"?>
<!-- Generator: Adobe Illustrator 16.0.0, SVG Export Plug-In . SVG Version: 6.00 Build 0)  -->
<!DOCTYPE svg PUBLIC "-//W3C//DTD SVG 1.1//EN" "http://www.w3.org/Graphics/SVG/1.1/DTD/svg11.dtd">
<svg version="1.1" id="Layer_1" xmlns="http://www.w3.org/2000/svg" xmlns:xlink="http://www.w3.org/1999/xlink" x="0px" y="0px"
	 width="512px" height="512px" viewBox="0 0 512 512" enable-background="new 0 0 512 512" xml:space="preserve">
<path fill="#C0C0C1" d="M56.08,184.393c0-68.776,84.631-126.882,184.784-126.882c51.937,0,100.211,14.829,135.942,41.744
	c31.513,23.732,48.86,53.969,48.855,85.128c0,6.931-0.902,13.736-2.543,20.403c16.304,5.887,31.572,13.599,45.386,22.981
	c4.646-13.885,7.142-28.418,7.142-43.384C475.65,86.719,370.538,7.526,240.863,7.526C111.198,7.526,6.105,86.719,6.096,184.393
	c0,44.712,22.073,85.519,58.399,116.661L9.903,410.228c-2.46,4.92-0.449,6.931,4.471,4.471l134.976-67.39
	c0.02,0.01,0.049,0.01,0.068,0.02c-0.029-1.143-0.107-2.275-0.107-3.417c0-16.099,3.056-31.753,8.942-46.567
	C98.244,276.11,56.08,232.922,56.08,184.393"/>
<path fill="#C0C0C1" d="M465.067,424.998c25.246-21.644,40.588-50.004,40.588-81.087c-0.01-67.879-73.058-122.919-163.175-122.919
	c-90.127,0-163.189,55.04-163.184,122.919c0,67.897,73.057,122.929,163.184,122.929c22.57,0,44.058-3.446,63.603-9.685
	l91.093,45.474c4.911,2.46,6.932,0.449,4.472-4.472L465.067,424.998z M269.867,367.048c-12.623,0-22.854-10.231-22.854-22.854
	c0-12.623,10.23-22.854,22.854-22.854s22.854,10.231,22.854,22.854C292.722,356.816,282.49,367.048,269.867,367.048
	 M341.689,367.048c-12.623,0-22.858-10.231-22.858-22.854c0-12.623,10.235-22.854,22.858-22.854s22.854,10.231,22.854,22.854
	C364.544,356.816,354.312,367.048,341.689,367.048 M413.697,367.048c-12.623,0-22.854-10.231-22.854-22.854
	c0-12.623,10.23-22.854,22.854-22.854s22.854,10.231,22.854,22.854C436.552,356.816,426.32,367.048,413.697,367.048"/>
</svg>
