<?xml version="1.0" encoding="utf-8"?>
<!-- Generator: Adobe Illustrator 16.0.0, SVG Export Plug-In . SVG Version: 6.00 Build 0)  -->
<!DOCTYPE svg PUBLIC "-//W3C//DTD SVG 1.1//EN" "http://www.w3.org/Graphics/SVG/1.1/DTD/svg11.dtd">
<svg version="1.1" id="Layer_1" xmlns="http://www.w3.org/2000/svg" xmlns:xlink="http://www.w3.org/1999/xlink" x="0px" y="0px"
	 width="512px" height="512px" viewBox="0 0 512 512" enable-background="new 0 0 512 512" xml:space="preserve">
<path fill="#D9D8D7" d="M497.613,143.721l-82.024-82.023c-5.692-5.693-14.923-5.692-20.615,0L198.428,258.24l-79.641-79.645
	c-2.734-2.734-6.442-4.27-10.309-4.27c-3.867,0-7.574,1.536-10.308,4.27l-82.018,82.023c-5.693,5.693-5.693,14.923,0,20.615
	L188.12,453.202c2.847,2.847,6.577,4.27,10.308,4.27c3.73,0,7.461-1.424,10.308-4.27l288.878-288.865
	c2.734-2.734,4.27-6.442,4.27-10.308S500.348,146.455,497.613,143.721z"/>
</svg>
