<?xml version="1.0" encoding="utf-8"?>
<!-- Generator: Adobe Illustrator 16.0.0, SVG Export Plug-In . SVG Version: 6.00 Build 0)  -->
<!DOCTYPE svg PUBLIC "-//W3C//DTD SVG 1.1//EN" "http://www.w3.org/Graphics/SVG/1.1/DTD/svg11.dtd">
<svg version="1.1" id="Layer_1" xmlns="http://www.w3.org/2000/svg" xmlns:xlink="http://www.w3.org/1999/xlink" x="0px" y="0px"
	 width="512px" height="512px" viewBox="0 0 512 512" enable-background="new 0 0 512 512" xml:space="preserve">
<path d="M429.953,82.476c-95.697-95.641-250.777-95.698-346.532,0c-95.64,95.669-95.64,250.834,0.058,346.475
	c95.697,95.669,250.806,95.669,346.474,0.028C525.651,333.31,525.565,178.202,429.953,82.476z M417.104,274.629l-141.515-0.071
	v141.601c0,10.417-8.442,18.859-18.859,18.859c-10.402,0-18.845-8.442-18.845-18.859V274.543H96.271
	c-10.403,0-18.845-8.441-18.845-18.844s8.442-18.845,18.845-18.845h141.601L237.8,95.311c0-10.417,8.428-18.859,18.831-18.859
	c0.014,0,0.014,0,0.014,0c10.417,0,18.83,8.428,18.859,18.831l0.076,141.582l141.524,0.076c10.417,0,18.858,8.442,18.858,18.859
	C435.935,266.201,427.521,274.629,417.104,274.629z"/>
</svg>
