<?xml version="1.0" encoding="utf-8"?>
<!-- Generator: Adobe Illustrator 16.0.0, SVG Export Plug-In . SVG Version: 6.00 Build 0)  -->
<!DOCTYPE svg PUBLIC "-//W3C//DTD SVG 1.1//EN" "http://www.w3.org/Graphics/SVG/1.1/DTD/svg11.dtd">
<svg version="1.1" id="Layer_1" xmlns="http://www.w3.org/2000/svg" xmlns:xlink="http://www.w3.org/1999/xlink" x="0px" y="0px"
	 width="512px" height="512px" viewBox="0 0 512 512" enable-background="new 0 0 512 512" xml:space="preserve">
<path fill="#ffffff" d="M255.715,11.815C120.667,11.815,10.8,121.739,10.8,256.843c0,135.048,109.867,244.901,244.914,244.901
	c135.147,0,245.086-109.854,245.086-244.901C500.8,121.739,390.862,11.815,255.715,11.815z M284.621,403.755h-58.099V216.84h58.099
	V403.755z M255.6,171.772h-0.398c-19.518,0-32.094-13.771-32.094-31.013c0-17.526,12.974-30.956,32.891-30.956
	c19.858,0,32.094,13.43,32.492,30.956C288.491,158.001,275.857,171.772,255.6,171.772z"/>
</svg>
