<?xml version="1.0" encoding="utf-8"?>
<!-- Generator: Adobe Illustrator 16.0.0, SVG Export Plug-In . SVG Version: 6.00 Build 0)  -->
<!DOCTYPE svg PUBLIC "-//W3C//DTD SVG 1.1//EN" "http://www.w3.org/Graphics/SVG/1.1/DTD/svg11.dtd">
<svg version="1.1" id="Layer_1" xmlns="http://www.w3.org/2000/svg" xmlns:xlink="http://www.w3.org/1999/xlink" x="0px" y="0px"
	 width="512px" height="512px" viewBox="0 0 512 512" enable-background="new 0 0 512 512" xml:space="preserve">
<path d="M257.588,11.565c-135.31,0-245,109.69-245,245c0,135.291,109.69,244.981,245,244.981s245-109.69,245-244.981
	C502.588,121.256,392.897,11.565,257.588,11.565z M384.358,356.666c7.36,7.36,7.36,19.293,0,26.652
	c-3.68,3.68-8.504,5.52-13.326,5.52c-4.823,0-9.646-1.839-13.326-5.52L257.588,283.199L157.469,383.318
	c-3.68,3.68-8.503,5.52-13.326,5.52s-9.646-1.84-13.326-5.52c-7.36-7.359-7.36-19.293,0-26.652l100.117-100.117L130.818,156.467
	c-7.361-7.359-7.363-19.292-0.004-26.653c7.36-7.36,19.292-7.362,26.653-0.004l100.121,100.088l100.12-100.088
	c7.36-7.358,19.294-7.356,26.652,0.004c7.359,7.361,7.357,19.294-0.004,26.653L284.242,256.549L384.358,356.666z"/>
</svg>
