<?xml version="1.0" encoding="utf-8"?>
<!-- Generator: Adobe Illustrator 16.0.0, SVG Export Plug-In . SVG Version: 6.00 Build 0)  -->
<!DOCTYPE svg PUBLIC "-//W3C//DTD SVG 1.1//EN" "http://www.w3.org/Graphics/SVG/1.1/DTD/svg11.dtd">
<svg version="1.1" id="Layer_1" xmlns="http://www.w3.org/2000/svg" xmlns:xlink="http://www.w3.org/1999/xlink" x="0px" y="0px"
	 width="512px" height="512px" viewBox="0 0 512 512" enable-background="new 0 0 512 512" xml:space="preserve">
<path fill="#010101" d="M8.057,315.472h-3.45V197.025l503.176-0.003v118.449H8.057z M11.507,203.925V308.57l489.377-0.003V203.925
	H11.507z"/>
<path fill="#010101" d="M58.51,276.983c-3.616,1.876-8.117,2.812-13.5,2.812c-6.966,0-12.546-2.198-16.748-6.595
	c-4.199-4.4-6.296-10.173-6.296-17.321c0-7.683,2.361-13.89,7.083-18.625c4.725-4.732,10.693-7.101,17.906-7.101
	c4.641,0,8.495,0.66,11.555,1.976v7.906c-3.236-1.919-6.81-2.881-10.719-2.881c-5.2,0-9.418,1.665-12.644,4.992
	c-3.226,3.327-4.839,7.772-4.839,13.331c0,5.294,1.506,9.509,4.521,12.651c3.015,3.135,6.979,4.702,11.89,4.702
	c4.537,0,8.465-1.073,11.792-3.217V276.983z"/>
<path fill="#010101" d="M86.546,279.796c-6.924,0-12.465-2.244-16.631-6.731c-4.166-4.488-6.248-10.329-6.248-17.52
	c0-7.727,2.124-13.891,6.364-18.489c4.244-4.599,10.007-6.899,17.288-6.899c6.742,0,12.173,2.231,16.293,6.696
	c4.124,4.468,6.182,10.308,6.182,17.521c0,7.839-2.114,14.034-6.332,18.594C99.246,277.52,93.603,279.796,86.546,279.796
	 M86.917,237.155c-4.4,0-7.981,1.642-10.739,4.925c-2.754,3.281-4.133,7.603-4.133,12.961c0,5.34,1.337,9.64,4.02,12.897
	c2.68,3.259,6.182,4.892,10.514,4.892c4.605,0,8.231-1.551,10.888-4.657c2.657-3.103,3.991-7.447,3.991-13.028
	c0-5.741-1.294-10.174-3.87-13.301C95.005,238.717,91.447,237.155,86.917,237.155"/>
<path fill="#010101" d="M159.337,278.993h-8.709l-22.943-35.305c-0.585-0.893-1.063-1.819-1.444-2.78h-0.199
	c0.176,1.027,0.267,3.226,0.267,6.6v31.485h-7.704v-48.034h9.278l22.176,34.469c0.937,1.427,1.539,2.413,1.808,2.946h0.134
	c-0.225-1.275-0.332-3.428-0.332-6.466v-30.95h7.668V278.993z"/>
<polygon fill="#010101" points="202.044,237.726 188.245,237.726 188.245,278.993 180.274,278.993 180.274,237.726 166.505,237.726 
	166.505,230.958 202.044,230.958 "/>
<path fill="#010101" d="M246.194,278.996h-9.311l-7.671-12.865c-0.693-1.184-1.366-2.195-2.026-3.031
	c-0.66-0.839-1.33-1.525-2.013-2.062c-0.677-0.533-1.421-0.924-2.228-1.171c-0.8-0.244-1.707-0.367-2.709-0.367h-3.216v19.496
	h-7.938v-48.037h15.808c2.257,0,4.335,0.267,6.231,0.803c1.899,0.537,3.551,1.345,4.957,2.428c1.408,1.086,2.507,2.434,3.301,4.052
	c0.793,1.623,1.187,3.514,1.187,5.678c0,1.699-0.247,3.257-0.751,4.677c-0.504,1.418-1.219,2.676-2.143,3.782
	c-0.927,1.105-2.042,2.052-3.353,2.831c-1.304,0.782-2.774,1.386-4.4,1.809v0.137c0.868,0.489,1.626,1.032,2.276,1.619
	c0.647,0.595,1.259,1.203,1.841,1.831c0.582,0.621,1.158,1.33,1.727,2.124c0.569,0.793,1.196,1.717,1.889,2.764L246.194,278.996z
	 M217.02,237.425v15.608h6.631c1.226,0,2.364-0.19,3.401-0.571c1.034-0.379,1.935-0.925,2.693-1.641
	c0.761-0.713,1.353-1.585,1.775-2.611c0.426-1.026,0.641-2.177,0.641-3.45c0-2.301-0.726-4.1-2.179-5.394
	c-1.45-1.293-3.538-1.941-6.264-1.941H217.02z"/>
<path fill="#010101" d="M270.913,279.796c-6.924,0-12.465-2.244-16.631-6.731c-4.166-4.488-6.248-10.329-6.248-17.52
	c0-7.727,2.124-13.891,6.365-18.489c4.244-4.599,10.007-6.899,17.288-6.899c6.741,0,12.176,2.231,16.293,6.696
	c4.123,4.468,6.182,10.308,6.182,17.521c0,7.839-2.11,14.034-6.331,18.594C283.612,277.52,277.971,279.796,270.913,279.796
	 M271.284,237.155c-4.4,0-7.98,1.642-10.735,4.925c-2.758,3.281-4.137,7.603-4.137,12.961c0,5.34,1.337,9.64,4.02,12.897
	c2.68,3.259,6.183,4.892,10.518,4.892c4.602,0,8.228-1.551,10.888-4.657c2.653-3.103,3.987-7.447,3.987-13.028
	c0-5.741-1.295-10.174-3.87-13.301C279.372,238.717,275.817,237.155,271.284,237.155"/>
<polygon fill="#010101" points="329.568,278.993 302.969,278.993 302.969,230.959 310.943,230.959 310.943,272.261 329.568,272.261 
	"/>
<polygon fill="#010101" points="363.101,278.993 336.501,278.993 336.501,230.959 344.473,230.959 344.473,272.261 363.101,272.261 
	"/>
<path fill="#010101" d="M411.271,278.996h-8.749l-4.318-12.228h-18.892l-4.156,12.228h-8.705l17.987-48.037h8.976L411.271,278.996z
	 M396.093,260.271l-6.667-19.163c-0.198-0.623-0.413-1.629-0.634-3.015h-0.134c-0.201,1.273-0.426,2.278-0.67,3.015l-6.602,19.163
	H396.093z"/>
<polygon fill="#010101" points="443.827,237.726 430.028,237.726 430.028,278.993 422.054,278.993 422.054,237.726 408.288,237.726 
	408.288,230.958 443.827,230.958 "/>
<path fill="#010101" d="M467.811,279.796c-6.924,0-12.465-2.244-16.631-6.731c-4.166-4.488-6.247-10.329-6.247-17.52
	c0-7.727,2.12-13.891,6.364-18.489c4.24-4.599,10.007-6.899,17.285-6.899c6.744,0,12.176,2.231,16.296,6.696
	c4.12,4.468,6.179,10.308,6.179,17.521c0,7.839-2.11,14.034-6.328,18.594C480.507,277.52,474.864,279.796,467.811,279.796
	 M468.179,237.155c-4.4,0-7.978,1.642-10.735,4.925c-2.758,3.281-4.137,7.603-4.137,12.961c0,5.34,1.34,9.64,4.02,12.897
	c2.68,3.259,6.186,4.892,10.518,4.892c4.602,0,8.228-1.551,10.888-4.657c2.653-3.103,3.983-7.447,3.983-13.028
	c0-5.741-1.287-10.174-3.866-13.301C476.267,238.717,472.712,237.155,468.179,237.155"/>
</svg>
