<?xml version="1.0" encoding="utf-8"?>
<!-- Generator: Adobe Illustrator 16.0.0, SVG Export Plug-In . SVG Version: 6.00 Build 0)  -->
<!DOCTYPE svg PUBLIC "-//W3C//DTD SVG 1.1//EN" "http://www.w3.org/Graphics/SVG/1.1/DTD/svg11.dtd">
<svg version="1.1" id="Layer_1" xmlns="http://www.w3.org/2000/svg" xmlns:xlink="http://www.w3.org/1999/xlink" x="0px" y="0px"
	 width="512px" height="512px" viewBox="0 0 512 512" enable-background="new 0 0 512 512" xml:space="preserve">
<path d="M296.53,186.128l54.797-66.625c10.979-13.369,9.061-33.093-4.278-44.103c-13.336-10.947-33.092-8.996-44.102,4.31
	l-46.933,57.093l-46.965-57.093c-10.978-13.337-30.733-15.288-44.07-4.31c-13.369,11.01-15.288,30.733-4.309,44.103l54.765,66.625
	l-54.765,66.626c-10.979,13.337-9.06,33.091,4.309,44.07c13.37,11.009,33.092,9.026,44.07-4.311l46.965-57.093l46.933,57.093
	c6.198,7.548,15.162,11.45,24.222,11.45c6.982,0,14.028-2.327,19.88-7.14c13.338-10.979,15.256-30.733,4.277-44.07L296.53,186.128z"
	/>
<path d="M435.5,359.627h-359v-347h359V359.627z M93.525,343.17h324.949V29.083H93.525V343.17z"/>
<g>
	<path d="M131.11,497.316c-5.959,3.09-13.372,4.635-22.236,4.635c-11.477,0-20.673-3.623-27.588-10.869
		c-6.916-7.247-10.373-16.755-10.373-28.526c0-12.653,3.89-22.879,11.67-30.678c7.779-7.798,17.609-11.697,29.491-11.697
		c7.65,0,13.996,1.085,19.036,3.255v13.021c-5.334-3.163-11.22-4.744-17.656-4.744c-8.571,0-15.514,2.74-20.829,8.221
		c-5.316,5.481-7.973,12.801-7.973,21.96c0,8.718,2.483,15.661,7.449,20.829s11.495,7.752,19.587,7.752
		c7.467,0,13.94-1.766,19.422-5.297V497.316z"/>
	<path d="M209.681,500.627h-13.187v-34.319H159.25v34.319h-13.132v-79.122h13.132v33.271h37.244v-33.271h13.187V500.627z"/>
	<path d="M242.676,500.627h-13.518v-79.122h13.518V500.627z"/>
	<path d="M323.012,468.625c0,22.218-10.521,33.326-31.561,33.326c-20.158,0-30.236-10.686-30.236-32.057v-48.39h13.132v45.686
		c0,15.523,6.032,23.284,18.097,23.284c11.623,0,17.436-7.485,17.436-22.457v-46.513h13.133V468.625z"/>
	<path d="M341.605,500.627v-79.122h22.844c29.17,0,43.754,12.856,43.754,38.567c0,12.213-4.047,22.025-12.139,29.437
		c-8.092,7.413-18.943,11.118-32.553,11.118H341.605z M354.684,432.65v56.887h10.482c9.232,0,16.416-2.539,21.547-7.615
		s7.697-12.248,7.697-21.518c0-18.503-9.582-27.754-28.748-27.754H354.684z"/>
	<path d="M436.121,500.627h-13.518v-79.122h13.518V500.627z"/>
</g>
</svg>
