<?xml version="1.0" encoding="utf-8"?>
<!-- Generator: Adobe Illustrator 16.0.0, SVG Export Plug-In . SVG Version: 6.00 Build 0)  -->
<!DOCTYPE svg PUBLIC "-//W3C//DTD SVG 1.1//EN" "http://www.w3.org/Graphics/SVG/1.1/DTD/svg11.dtd">
<svg version="1.1" id="Layer_1" xmlns="http://www.w3.org/2000/svg" xmlns:xlink="http://www.w3.org/1999/xlink" x="0px" y="0px"
	 width="512px" height="512px" viewBox="0 0 512 512" enable-background="new 0 0 512 512" xml:space="preserve">
<path d="M319.014,256.004l85.193-103.583c17.068-20.785,14.086-51.45-6.65-68.566c-20.736-17.02-51.449-13.987-68.566,6.7
	l-72.968,88.765l-73.017-88.765c-17.068-20.736-47.781-23.769-68.518-6.7c-20.785,17.117-23.768,47.781-6.7,68.566l85.146,103.583
	l-85.146,103.583c-17.068,20.736-14.085,51.449,6.7,68.519c20.786,17.116,51.45,14.034,68.518-6.701l73.017-88.765l72.968,88.765
	c9.635,11.737,23.572,17.802,37.657,17.802c10.857,0,21.812-3.619,30.909-11.101c20.736-17.069,23.719-47.782,6.65-68.519
	L319.014,256.004z"/>
</svg>
