<?xml version="1.0" encoding="utf-8"?>
<!-- Generator: Adobe Illustrator 16.0.0, SVG Export Plug-In . SVG Version: 6.00 Build 0)  -->
<!DOCTYPE svg PUBLIC "-//W3C//DTD SVG 1.1//EN" "http://www.w3.org/Graphics/SVG/1.1/DTD/svg11.dtd">
<svg version="1.1" id="Layer_1" xmlns="http://www.w3.org/2000/svg" xmlns:xlink="http://www.w3.org/1999/xlink" x="0px" y="0px"
	 width="512px" height="512px" viewBox="0 0 512 512" enable-background="new 0 0 512 512" xml:space="preserve">
<path d="M256.019,11.005C120.697,11.005,11,120.684,11,256.005c0,135.293,109.697,244.99,245.019,244.99S501,391.298,501,256.005
	C501,120.684,391.34,11.005,256.019,11.005 M182.993,303.472c-26.224,0-47.458-21.271-47.458-47.467
	c0-26.224,21.234-47.458,47.458-47.458c26.205,0,47.458,21.234,47.458,47.458C230.451,282.2,209.198,303.472,182.993,303.472
	 M329.025,303.472c-26.205,0-47.458-21.271-47.458-47.467c0-26.224,21.253-47.458,47.458-47.458s47.458,21.234,47.458,47.458
	C376.483,282.2,355.23,303.472,329.025,303.472"/>
</svg>
