<?xml version="1.0" encoding="utf-8"?>
<!-- Generator: Adobe Illustrator 16.0.0, SVG Export Plug-In . SVG Version: 6.00 Build 0)  -->
<!DOCTYPE svg PUBLIC "-//W3C//DTD SVG 1.1//EN" "http://www.w3.org/Graphics/SVG/1.1/DTD/svg11.dtd">
<svg version="1.1" id="Layer_1" xmlns="http://www.w3.org/2000/svg" xmlns:xlink="http://www.w3.org/1999/xlink" x="0px" y="0px"
	 width="512px" height="512px" viewBox="0 0 512 512" enable-background="new 0 0 512 512" xml:space="preserve">
<g>
	<path d="M301.789,255.981c0,9.953-3.959,19.503-10.998,26.542L83.293,490.002c-14.664,14.664-38.42,14.664-53.084,0
		s-14.664-38.42,0-53.084l180.955-180.937L30.247,75.082c-14.664-14.664-14.664-38.42,0-53.084s38.42-14.664,53.084,0
		l207.46,207.424C297.83,236.479,301.789,246.027,301.789,255.981z"/>
	<path d="M492.789,255.981c0,9.953-3.959,19.503-10.998,26.542L274.293,490.002c-14.664,14.664-38.42,14.664-53.084,0
		s-14.664-38.42,0-53.084l180.955-180.937L221.247,75.082c-14.664-14.664-14.664-38.42,0-53.084s38.42-14.664,53.084,0
		l207.46,207.424C488.83,236.479,492.789,246.027,492.789,255.981z"/>
</g>
</svg>
