<?xml version="1.0" encoding="utf-8"?>
<!-- Generator: Adobe Illustrator 16.0.0, SVG Export Plug-In . SVG Version: 6.00 Build 0)  -->
<!DOCTYPE svg PUBLIC "-//W3C//DTD SVG 1.1//EN" "http://www.w3.org/Graphics/SVG/1.1/DTD/svg11.dtd">
<svg version="1.1" id="Layer_1" xmlns="http://www.w3.org/2000/svg" xmlns:xlink="http://www.w3.org/1999/xlink" x="0px" y="0px"
	 width="512px" height="512px" viewBox="0 0 512 512" enable-background="new 0 0 512 512" xml:space="preserve">
<g>
	<path d="M221.209,229.422l207.46-207.424c14.664-14.664,38.42-14.664,53.084,0s14.664,38.42,0,53.084L300.836,255.981
		l180.955,180.937c14.664,14.664,14.664,38.42,0,53.084s-38.42,14.664-53.084,0L221.209,282.523
		c-7.039-7.039-10.998-16.59-10.998-26.542C210.211,246.027,214.17,236.479,221.209,229.422z"/>
	<path d="M30.209,229.422l207.46-207.424c14.664-14.664,38.42-14.664,53.084,0s14.664,38.42,0,53.084L109.836,255.981
		l180.955,180.937c14.664,14.664,14.664,38.42,0,53.084s-38.42,14.664-53.084,0L30.209,282.523
		c-7.039-7.039-10.998-16.59-10.998-26.542C19.211,246.027,23.17,236.479,30.209,229.422z"/>
</g>
</svg>
