<?xml version="1.0" encoding="utf-8"?>
<!-- Generator: Adobe Illustrator 16.0.0, SVG Export Plug-In . SVG Version: 6.00 Build 0)  -->
<!DOCTYPE svg PUBLIC "-//W3C//DTD SVG 1.1//EN" "http://www.w3.org/Graphics/SVG/1.1/DTD/svg11.dtd">
<svg version="1.1" id="Layer_1" xmlns="http://www.w3.org/2000/svg" xmlns:xlink="http://www.w3.org/1999/xlink" x="0px" y="0px"
	 width="512px" height="512px" viewBox="0 0 512 512" enable-background="new 0 0 512 512" xml:space="preserve">
<path fill="#3B3B3B" d="M322.933,247.128l-29.045,7.904c-8.286-11.528-18.287-21.428-29.511-29.471l7.911-29.079
	c2.45-5.917,0.81-12.218-3.669-14.072l-31.337-12.98c-4.477-1.855-10.092,1.44-12.542,7.357l-14.967,26.155
	c-13.628-2.249-27.698-2.321-41.709-0.03l-14.949-26.125c-2.451-5.915-8.068-9.212-12.543-7.357l-31.338,12.98
	c-4.477,1.854-6.117,8.155-3.669,14.072l7.905,29.045c-11.529,8.289-21.428,18.289-29.471,29.514l-29.079-7.913
	c-5.917-2.451-12.218-0.807-14.073,3.668l-12.98,31.337c-1.854,4.478,1.44,10.091,7.358,12.544l26.16,14.966
	c-2.251,13.625-2.324,27.697-0.03,41.707l-26.129,14.95c-5.917,2.45-9.211,8.067-7.358,12.545l12.98,31.338
	c1.855,4.476,8.156,6.117,14.075,3.665l29.045-7.901c8.287,11.523,18.289,21.424,29.511,29.47l-7.914,29.078
	c-2.448,5.917-0.806,12.221,3.667,14.073l31.34,12.98c4.477,1.853,10.092-1.441,12.543-7.359l14.966-26.156
	c13.627,2.251,27.7,2.321,41.709,0.029l14.95,26.127c2.45,5.918,8.069,9.212,12.542,7.361l31.337-12.982
	c4.479-1.857,6.119-8.156,3.667-14.073l-7.901-29.044c11.526-8.289,21.429-18.289,29.47-29.513l29.078,7.91
	c5.918,2.452,12.222,0.811,14.073-3.665l12.982-31.338c1.852-4.479-1.443-10.095-7.358-12.545l-26.159-14.968
	c2.251-13.625,2.321-27.695,0.031-41.706l26.126-14.949c5.917-2.45,9.214-8.067,7.36-12.544l-12.982-31.337
	C335.151,246.318,328.851,244.68,322.933,247.128 M221.779,409.798c-43.731,18.112-94.045-2.726-112.157-46.456
	c-18.117-43.732,2.724-94.047,46.455-112.161c43.731-18.114,94.043,2.727,112.158,46.459
	C286.351,341.37,265.51,391.685,221.779,409.798 M265.811,50.771l-11.76,3.2c-3.355-4.667-7.405-8.675-11.949-11.932l3.203-11.772
	c0.993-2.396,0.328-4.946-1.485-5.697l-12.688-5.255c-1.812-0.751-4.086,0.583-5.077,2.979l-6.06,10.589
	c-5.517-0.911-11.214-0.94-16.886-0.013l-6.052-10.577c-0.992-2.395-3.267-3.73-5.078-2.979l-12.688,5.255
	c-1.812,0.751-2.476,3.301-1.485,5.697l3.201,11.759c-4.667,3.355-8.675,7.404-11.932,11.948l-11.772-3.203
	c-2.396-0.993-4.947-0.327-5.697,1.485l-5.254,12.687c-0.752,1.813,0.583,4.085,2.979,5.079l10.591,6.059
	c-0.912,5.517-0.94,11.213-0.013,16.886l-10.578,6.052c-2.396,0.992-3.73,3.267-2.979,5.079l5.254,12.687
	c0.75,1.813,3.301,2.477,5.698,1.485l11.759-3.199c3.354,4.665,7.404,8.673,11.948,11.93l-3.204,11.773
	c-0.991,2.396-0.326,4.947,1.485,5.698l12.688,5.255c1.812,0.75,4.086-0.583,5.078-2.979l6.059-10.59
	c5.517,0.912,11.214,0.94,16.886,0.011l6.053,10.579c0.991,2.396,3.267,3.729,5.077,2.979l12.688-5.256
	c1.813-0.752,2.478-3.302,1.484-5.698l-3.199-11.759c4.667-3.355,8.675-7.404,11.931-11.948l11.773,3.202
	c2.394,0.992,4.947,0.328,5.697-1.484l5.256-12.687c0.749-1.812-0.585-4.087-2.979-5.079l-10.591-6.06
	c0.911-5.516,0.939-11.212,0.013-16.884l10.577-6.052c2.396-0.992,3.73-3.267,2.98-5.079l-5.256-12.687
	C270.756,50.443,268.204,49.78,265.811,50.771 M224.857,116.628c-17.705,7.333-38.074-1.104-45.407-18.808
	c-7.334-17.705,1.103-38.075,18.807-45.409c17.706-7.333,38.075,1.105,45.409,18.809
	C250.998,88.925,242.562,109.295,224.857,116.628 M478.554,131.329l-20.618-2.633c-2.24-9.543-5.999-18.5-11.037-26.596
	l12.73-16.458c3.127-3.126,3.746-7.582,1.379-9.945L444.45,59.136c-2.367-2.366-6.819-1.747-9.95,1.379l-16.456,12.729
	c-8.095-5.035-17.053-8.799-26.596-11.04l-2.633-20.614c0-4.422-2.714-8.008-6.058-8.008h-23.419c-3.347,0-6.059,3.585-6.059,8.008
	l-2.632,20.614c-9.543,2.24-18.499,6.005-26.597,11.04l-16.458-12.729c-3.127-3.126-7.583-3.745-9.945-1.379l-16.562,16.561
	c-2.363,2.366-1.748,6.818,1.378,9.945l12.732,16.458c-5.034,8.098-8.798,17.053-11.038,26.596l-20.618,2.633
	c-4.422,0-8.007,2.714-8.007,6.057v23.42c0,3.346,3.585,6.058,8.007,6.058l20.618,2.634c2.24,9.542,6.004,18.497,11.038,26.593
	l-12.732,16.459c-3.126,3.127-3.741,7.583-1.378,9.946l16.562,16.562c2.368,2.363,6.818,1.749,9.945-1.38l16.458-12.729
	c8.098,5.032,17.055,8.796,26.597,11.036l2.632,20.617c0,4.423,2.716,8.009,6.059,8.009h23.419c3.346,0,6.058-3.586,6.058-8.009
	l2.633-20.617c9.543-2.24,18.501-6.004,26.596-11.036l16.456,12.729c3.131,3.128,7.583,3.743,9.95,1.38l16.558-16.562
	c2.367-2.366,1.748-6.819-1.379-9.946l-12.73-16.458c5.038-8.097,8.801-17.056,11.041-26.596l20.614-2.632
	c4.421,0,8.011-2.713,8.005-6.055v-23.423C486.559,134.04,482.975,131.329,478.554,131.329 M371.048,208.367
	c-32.682,0-59.268-26.588-59.268-59.27c0-32.681,26.586-59.271,59.268-59.271c32.681,0,59.269,26.589,59.269,59.271
	C430.316,181.779,403.729,208.367,371.048,208.367"/>
</svg>
