<?xml version="1.0" encoding="utf-8"?>
<!-- Generator: Adobe Illustrator 16.0.0, SVG Export Plug-In . SVG Version: 6.00 Build 0)  -->
<!DOCTYPE svg PUBLIC "-//W3C//DTD SVG 1.1//EN" "http://www.w3.org/Graphics/SVG/1.1/DTD/svg11.dtd">
<svg version="1.1" id="Layer_1" xmlns="http://www.w3.org/2000/svg" xmlns:xlink="http://www.w3.org/1999/xlink" x="0px" y="0px"
	 width="512px" height="512px" viewBox="0 0 512 512" enable-background="new 0 0 512 512" xml:space="preserve">
<g>
	<path d="M257.004,473.906c-17.206-31.018-169.044-143.309-206.777-205.08c-13.071-21.436-23.753-40.254-29.918-57.783
		c-6.118-17.516-9.2-35.283-9.2-53.277c0-33.264,11.088-61.127,33.264-83.614c22.176-22.475,49.609-33.718,82.276-33.718
		c32.954,0,61.582,11.698,85.86,35.068c18.281,17.385,33.121,43.312,44.496,77.771c9.893-33.861,23.825-59.634,41.819-77.317
		c24.876-23.98,53.647-35.964,86.314-35.964c32.356,0,59.789,11.16,82.252,33.503c22.487,22.319,33.718,48.917,33.718,79.779
		c0,26.979-6.069,55.309-19.762,84.295C442.154,320.371,279.49,434.74,257.004,474.6"/>
</g>
</svg>
