<?xml version="1.0" encoding="utf-8"?>
<!-- Generator: Adobe Illustrator 16.0.0, SVG Export Plug-In . SVG Version: 6.00 Build 0)  -->
<!DOCTYPE svg PUBLIC "-//W3C//DTD SVG 1.1//EN" "http://www.w3.org/Graphics/SVG/1.1/DTD/svg11.dtd">
<svg version="1.1" id="Layer_1" xmlns="http://www.w3.org/2000/svg" xmlns:xlink="http://www.w3.org/1999/xlink" x="0px" y="0px"
	 width="512px" height="512px" viewBox="0 0 512 512" enable-background="new 0 0 512 512" xml:space="preserve">
<g>
	<path fill="#1E1F1D" d="M255.714,501.744C120.667,501.744,10.8,391.891,10.8,256.843c0-135.104,109.867-245.028,244.915-245.028
		c135.147,0,245.085,109.924,245.085,245.028C500.8,391.891,390.861,501.744,255.714,501.744z M255.714,40.95
		c-118.986,0-215.78,96.851-215.78,215.894c0,118.971,96.793,215.766,215.78,215.766c119.071,0,215.951-96.795,215.951-215.766
		C471.665,137.8,374.785,40.95,255.714,40.95z"/>
	<g>
		<path fill="#020202" d="M255.202,171.772c-19.518,0-32.094-13.771-32.094-31.013c0-17.526,12.974-30.956,32.891-30.956
			c19.859,0,32.094,13.43,32.492,30.956c0,17.242-12.633,31.013-32.891,31.013H255.202z M226.522,403.755V216.84h58.099v186.915
			H226.522z"/>
	</g>
</g>
</svg>
