<?xml version="1.0" encoding="utf-8"?>
<!-- Generator: Adobe Illustrator 16.0.0, SVG Export Plug-In . SVG Version: 6.00 Build 0)  -->
<!DOCTYPE svg PUBLIC "-//W3C//DTD SVG 1.1//EN" "http://www.w3.org/Graphics/SVG/1.1/DTD/svg11.dtd">
<svg version="1.1" id="Layer_1" xmlns="http://www.w3.org/2000/svg" xmlns:xlink="http://www.w3.org/1999/xlink" x="0px" y="0px"
	 width="512px" height="512px" viewBox="0 0 512 512" enable-background="new 0 0 512 512" xml:space="preserve">
<path d="M338.001,166.322v-24.458c0-4.501,3.687-8.152,8.153-8.152h24.44c4.501,0,8.152,3.668,8.152,8.152v24.458
	c0,4.501-3.667,8.152-8.152,8.152h-24.44C341.67,174.475,338.001,170.807,338.001,166.322z M501,256.005
	c0,135.293-109.66,244.99-244.981,244.99S11,391.298,11,256.005c0-135.321,109.697-245,245.019-245S501,120.684,501,256.005z
	 M109.933,205.047h73.95c15.982-22.59,42.326-37.366,72.116-37.366c29.791,0,56.134,14.776,72.116,37.366h73.951v-49.459
	c0-25.205-20.449-45.654-45.655-45.654H155.588c-25.223,0-45.655,20.449-45.655,45.654V205.047z M256.001,201.649
	c-30.012,0-54.351,24.322-54.351,54.351s24.339,54.351,54.351,54.351s54.351-24.322,54.351-54.351S286.013,201.649,256.001,201.649z
	 M402.067,239.016h-59.395c1.07,5.503,1.647,11.176,1.647,16.984c0,48.779-39.558,88.319-88.319,88.319
	c-48.779,0-88.32-39.54-88.32-88.319c0-5.809,0.578-11.481,1.665-16.984h-59.412v117.397c0,25.204,20.415,45.653,45.654,45.653
	h200.825c25.205,0,45.654-20.432,45.654-45.653V239.016z"/>
</svg>
