<?xml version="1.0" encoding="utf-8"?>
<!-- Generator: Adobe Illustrator 16.0.0, SVG Export Plug-In . SVG Version: 6.00 Build 0)  -->
<!DOCTYPE svg PUBLIC "-//W3C//DTD SVG 1.1//EN" "http://www.w3.org/Graphics/SVG/1.1/DTD/svg11.dtd">
<svg version="1.1" id="Layer_1" xmlns="http://www.w3.org/2000/svg" xmlns:xlink="http://www.w3.org/1999/xlink" x="0px" y="0px"
	 width="512px" height="512px" viewBox="0 0 512 512" enable-background="new 0 0 512 512" xml:space="preserve">
<g>
	<g>
		<path fill="#1D1D1B" d="M372.388,138.263H145.637c-3.741,0-6.765-3.023-6.765-6.764s3.023-6.765,6.765-6.765h226.751
			c3.741,0,6.765,3.023,6.765,6.765S376.129,138.263,372.388,138.263z"/>
		<path fill="#1D1D1B" d="M372.388,228.67H145.637c-3.741,0-6.765-3.023-6.765-6.765s3.023-6.765,6.765-6.765h226.751
			c3.741,0,6.765,3.023,6.765,6.765S376.129,228.67,372.388,228.67z"/>
		<path fill="#1D1D1B" d="M372.388,316.662H145.637c-3.741,0-6.765-3.023-6.765-6.764c0-3.741,3.023-6.765,6.765-6.765h226.751
			c3.741,0,6.765,3.023,6.765,6.765C379.152,313.639,376.129,316.662,372.388,316.662z"/>
		<path fill="#1D1D1B" d="M375.107,397.902H148.355c-3.741,0-6.764-3.023-6.764-6.766c0-3.74,3.023-6.764,6.764-6.764h226.752
			c3.74,0,6.764,3.023,6.764,6.764C381.871,394.879,378.848,397.902,375.107,397.902z"/>
	</g>
	<path fill="#1D1D1B" d="M446,489.863c0,6.15-4.986,11.137-11.137,11.137H78.137C71.986,501,67,496.014,67,489.863V22.137
		C67,15.986,71.986,11,78.137,11h356.727C441.014,11,446,15.986,446,22.137V489.863z M89,479h335V33H89V479z"/>
</g>
</svg>
