<?xml version="1.0" encoding="utf-8"?>
<!-- Generator: Adobe Illustrator 16.0.0, SVG Export Plug-In . SVG Version: 6.00 Build 0)  -->
<!DOCTYPE svg PUBLIC "-//W3C//DTD SVG 1.1//EN" "http://www.w3.org/Graphics/SVG/1.1/DTD/svg11.dtd">
<svg version="1.1" id="Layer_1" xmlns="http://www.w3.org/2000/svg" xmlns:xlink="http://www.w3.org/1999/xlink" x="0px" y="0px"
	 width="512px" height="512px" viewBox="0 0 512 512" enable-background="new 0 0 512 512" xml:space="preserve">
<path fill="#C9E7DE" d="M381.135,156.908c0-69.208-56.304-125.51-125.51-125.51c-69.205,0-125.507,56.303-125.507,125.51v84.815
	H94.688v240.131h321.875V241.723h-35.429V156.908z M163.225,156.908c0-50.951,41.449-92.405,92.4-92.405
	c50.95,0,92.402,41.455,92.402,92.405v84.815H163.225V156.908z M273.024,365.125v39.195c0,9.607-7.789,17.401-17.399,17.401
	c-9.609,0-17.398-7.794-17.398-17.401v-39.195c-9.956-5.938-16.627-16.805-16.627-29.242c0-18.791,15.235-34.021,34.025-34.021
	c18.793,0,34.023,15.23,34.023,34.021C289.648,348.32,282.978,359.188,273.024,365.125"/>
</svg>
