<?xml version="1.0" encoding="utf-8"?>
<!-- Generator: Adobe Illustrator 16.0.0, SVG Export Plug-In . SVG Version: 6.00 Build 0)  -->
<!DOCTYPE svg PUBLIC "-//W3C//DTD SVG 1.1//EN" "http://www.w3.org/Graphics/SVG/1.1/DTD/svg11.dtd">
<svg version="1.1" id="Layer_1" xmlns="http://www.w3.org/2000/svg" xmlns:xlink="http://www.w3.org/1999/xlink" x="0px" y="0px"
	 width="512px" height="512px" viewBox="0 0 512 512" enable-background="new 0 0 512 512" xml:space="preserve">
<path fill="#333233" d="M300.301,16.678c-111.321,0-201.888,89.131-201.888,198.677c0,45.817,15.851,88.053,42.428,121.696
	L12.111,464.42l31.343,31.691L172.165,368.76c34.882,28.26,79.529,45.25,128.136,45.25c111.287,0,201.811-89.107,201.811-198.655
	C502.111,105.809,411.588,16.678,300.301,16.678z M300.301,324.858c-62.164,0-112.736-49.126-112.736-109.503
	c0-60.389,50.572-109.525,112.736-109.525c62.119,0,112.658,49.136,112.658,109.525C412.959,275.732,362.42,324.858,300.301,324.858
	z"/>
</svg>
