<?xml version="1.0" encoding="utf-8"?>
<!-- Generator: Adobe Illustrator 16.0.0, SVG Export Plug-In . SVG Version: 6.00 Build 0)  -->
<!DOCTYPE svg PUBLIC "-//W3C//DTD SVG 1.1//EN" "http://www.w3.org/Graphics/SVG/1.1/DTD/svg11.dtd">
<svg version="1.1" id="Layer_1" xmlns="http://www.w3.org/2000/svg" xmlns:xlink="http://www.w3.org/1999/xlink" x="0px" y="0px"
	 width="512px" height="512px" viewBox="0 0 512 512" enable-background="new 0 0 512 512" xml:space="preserve">
<path fill-rule="evenodd" clip-rule="evenodd" d="M26.863,450.167V217.472l163,121.033L26.863,450.167z M480.583,475.269
	c-3.374,4.017-8.354,6.574-13.903,6.574H45.163c-5.543,0-10.523-2.558-13.891-6.574l178.279-122.13h92.75L480.583,475.269z
	 M484.989,217.472v232.695L321.988,338.505L484.989,217.472z M147.85,189.047h216.146v17.009H147.85V189.047z M147.85,222.363
	h216.146v17.009H147.85V222.363z M147.85,255.673h108.075v17.021H147.85V255.673z M482.104,189.124v1.569l-84.781,62.688v-90.525
	H114.527v90.494l-84.785-62.656v-1.569c63.954-47.47,127.883-94.962,191.812-142.433c28.018-19.616,42.316-18.501,68.492-0.182
	C354.066,94.042,418.098,141.583,482.104,189.124"/>
</svg>
