<?xml version="1.0" encoding="utf-8"?>
<!-- Generator: Adobe Illustrator 16.0.0, SVG Export Plug-In . SVG Version: 6.00 Build 0)  -->
<!DOCTYPE svg PUBLIC "-//W3C//DTD SVG 1.1//EN" "http://www.w3.org/Graphics/SVG/1.1/DTD/svg11.dtd">
<svg version="1.1" id="Layer_1" xmlns="http://www.w3.org/2000/svg" xmlns:xlink="http://www.w3.org/1999/xlink" x="0px" y="0px"
	 width="512px" height="512px" viewBox="0 0 512 512" enable-background="new 0 0 512 512" xml:space="preserve">
<path fill="#72C1A5" d="M141.328,244.592c-56.665,0-102.763-46.093-102.763-102.757c0-56.665,46.099-102.764,102.763-102.764
	c56.66,0,102.763,46.099,102.763,102.764C244.091,198.5,197.987,244.592,141.328,244.592 M141.328,81.981
	c-33.002,0-59.859,26.851-59.859,59.854c0,33.002,26.856,59.848,59.859,59.848c33.003,0,59.843-26.845,59.843-59.848
	C201.17,108.832,174.331,81.981,141.328,81.981 M370.274,473.551c-56.659,0-102.763-46.099-102.763-102.774
	c0-56.66,46.104-102.764,102.763-102.764c56.665,0,102.764,46.104,102.764,102.764C473.038,427.452,426.939,473.551,370.274,473.551
	 M370.274,310.934c-33.003,0-59.858,26.845-59.858,59.843c0,33.008,26.855,59.858,59.858,59.858s59.843-26.851,59.843-59.858
	C430.117,337.778,403.277,310.934,370.274,310.934 M60.022,473.551c5.487,0,10.979-2.095,15.174-6.284L466.748,75.697
	c8.39-8.379,8.39-21.963,0-30.353c-8.373-8.368-21.963-8.368-30.347,0.005L44.837,436.925c-8.368,8.373-8.368,21.958,0,30.342
	C49.032,471.456,54.53,473.551,60.022,473.551"/>
</svg>
