<?xml version="1.0" encoding="utf-8"?>
<!-- Generator: Adobe Illustrator 16.0.0, SVG Export Plug-In . SVG Version: 6.00 Build 0)  -->
<!DOCTYPE svg PUBLIC "-//W3C//DTD SVG 1.1//EN" "http://www.w3.org/Graphics/SVG/1.1/DTD/svg11.dtd">
<svg version="1.1" id="Layer_1" xmlns="http://www.w3.org/2000/svg" xmlns:xlink="http://www.w3.org/1999/xlink" x="0px" y="0px"
	 width="512px" height="512px" viewBox="0 0 512 512" enable-background="new 0 0 512 512" xml:space="preserve">
<path fill="#010101" d="M43.75,383.342V185.263c0-15.628,5.529-28.981,16.586-39.999c11.038-11.077,24.391-16.586,39.979-16.586
	h49.54l11.277-30.099c2.814-7.206,7.924-13.453,15.369-18.682c7.465-5.25,15.069-7.844,22.894-7.844h113.211
	c7.784,0,15.408,2.595,22.873,7.844c7.445,5.229,12.575,11.477,15.369,18.682l11.277,30.099h49.52
	c15.608,0,28.961,5.509,40.02,16.586c11.057,11.018,16.586,24.371,16.586,39.999v198.079c0,15.629-5.529,28.981-16.586,40.039
	c-11.059,11.037-24.411,16.566-40.02,16.566H100.315c-15.588,0-28.941-5.529-39.979-16.566
	C49.279,412.323,43.75,398.971,43.75,383.342z M156.96,284.303c0,27.285,9.701,50.598,29.062,69.998
	c19.38,19.361,42.713,29.041,69.978,29.041s50.598-9.68,69.998-29.041c19.361-19.4,29.041-42.713,29.041-69.998
	c0-27.265-9.68-50.598-29.041-69.958c-19.4-19.4-42.733-29.081-69.998-29.081s-50.598,9.681-69.978,29.081
	C166.661,233.705,156.96,257.038,156.96,284.303z M192.329,284.303c0-17.545,6.227-32.534,18.682-44.989
	c12.455-12.455,27.464-18.682,44.989-18.682c17.545,0,32.555,6.227,45.009,18.682c12.454,12.455,18.702,27.444,18.702,44.989
	s-6.248,32.534-18.702,45.009c-12.454,12.454-27.464,18.683-45.009,18.683c-17.524,0-32.534-6.229-44.989-18.683
	C198.556,316.837,192.329,301.848,192.329,284.303z"/>
</svg>
