<?xml version="1.0" encoding="utf-8"?>
<!-- Generator: Adobe Illustrator 16.0.0, SVG Export Plug-In . SVG Version: 6.00 Build 0)  -->
<!DOCTYPE svg PUBLIC "-//W3C//DTD SVG 1.1//EN" "http://www.w3.org/Graphics/SVG/1.1/DTD/svg11.dtd">
<svg version="1.1" id="Layer_1" xmlns="http://www.w3.org/2000/svg" xmlns:xlink="http://www.w3.org/1999/xlink" x="0px" y="0px"
	 width="512px" height="512px" viewBox="0 0 512 512" enable-background="new 0 0 512 512" xml:space="preserve">
<path fill="#010101" d="M256,12C120.69,12,11,121.69,11,257s109.688,245,245,245c135.31,0,245-109.69,245-245S391.31,12,256,12z
	 M279.756,339.36c-22.261-1.729-31.603-12.755-49.05-23.355c-9.599,50.329-21.324,98.583-56.053,123.786
	c-10.721-76.069,15.74-133.201,28.027-193.854c-20.952-35.27,2.521-106.247,46.713-88.752
	c54.372,21.508-47.086,131.117,21.021,144.807c71.118,14.291,100.148-123.389,56.055-168.162
	c-63.718-64.65-185.471-1.474-170.5,91.088c3.644,22.63,27.022,29.495,9.343,60.724c-40.779-9.04-52.948-41.201-51.381-84.081
	c2.521-70.186,63.061-119.324,123.785-126.121c76.794-8.596,148.869,28.189,158.822,100.429
	C407.74,257.404,361.87,345.711,279.756,339.36L279.756,339.36z"/>
</svg>
