<?xml version="1.0" encoding="utf-8"?>
<!-- Generator: Adobe Illustrator 16.0.0, SVG Export Plug-In . SVG Version: 6.00 Build 0)  -->
<!DOCTYPE svg PUBLIC "-//W3C//DTD SVG 1.1//EN" "http://www.w3.org/Graphics/SVG/1.1/DTD/svg11.dtd">
<svg version="1.1" id="Layer_1" xmlns="http://www.w3.org/2000/svg" xmlns:xlink="http://www.w3.org/1999/xlink" x="0px" y="0px"
	 width="512px" height="512px" viewBox="0 0 512 512" enable-background="new 0 0 512 512" xml:space="preserve">
<path d="M459.46,254.809c0-11.84-9.594-21.436-21.436-21.436l-160.863-0.086l-0.087-160.93
	c-0.033-11.825-9.595-21.404-21.437-21.404c0,0,0,0-0.016,0c-11.824,0-21.404,9.596-21.404,21.436l0.082,160.886H73.348
	c-11.824,0-21.42,9.595-21.42,21.42c0,11.824,9.596,21.419,21.42,21.419h160.966v160.969c0,11.841,9.597,21.436,21.421,21.436
	c11.84,0,21.436-9.595,21.436-21.436V276.131l160.854,0.08C449.866,276.211,459.429,266.632,459.46,254.809z"/>
</svg>
