<?xml version="1.0" encoding="utf-8"?>
<!-- Generator: Adobe Illustrator 16.0.0, SVG Export Plug-In . SVG Version: 6.00 Build 0)  -->
<!DOCTYPE svg PUBLIC "-//W3C//DTD SVG 1.1//EN" "http://www.w3.org/Graphics/SVG/1.1/DTD/svg11.dtd">
<svg version="1.1" id="Layer_1" xmlns="http://www.w3.org/2000/svg" xmlns:xlink="http://www.w3.org/1999/xlink" x="0px" y="0px"
	 width="512px" height="512px" viewBox="0 0 512 512" enable-background="new 0 0 512 512" xml:space="preserve">
<path fill="#DBDADA" d="M278.955,77.529l0.083-44.919c0.021-8.152-4.573-15.605-11.865-19.256
	c-7.282-3.656-16.001-2.87-22.522,2.021l-122.6,91.974c-5.412,4.057-8.594,10.428-8.594,17.193c0,6.766,3.183,13.136,8.594,17.193
	l122.225,91.683c6.501,4.88,15.199,5.672,22.491,2.042c7.281-3.631,11.886-11.059,11.896-19.194l0.083-40.773
	c47.315,11.422,82.942,57.951,82.942,113.1c0,63.847-47.336,115.798-105.517,115.798c-58.169,0-105.495-51.951-105.495-115.798
	c0-11.865-9.62-21.491-21.491-21.491H79.537c-11.87,0-21.49,9.626-21.49,21.491c0,117.163,88.88,212.48,198.125,212.48
	c109.256,0,198.146-95.317,198.146-212.48C454.318,179.998,377.429,89.723,278.955,77.529z"/>
</svg>
