<?xml version="1.0" encoding="utf-8"?>
<!-- Generator: Adobe Illustrator 16.0.0, SVG Export Plug-In . SVG Version: 6.00 Build 0)  -->
<!DOCTYPE svg PUBLIC "-//W3C//DTD SVG 1.1//EN" "http://www.w3.org/Graphics/SVG/1.1/DTD/svg11.dtd">
<svg version="1.1" id="Layer_1" xmlns="http://www.w3.org/2000/svg" xmlns:xlink="http://www.w3.org/1999/xlink" x="0px" y="0px"
	 width="512px" height="512px" viewBox="0 0 512 512" enable-background="new 0 0 512 512" xml:space="preserve">
<path id="Twitter__x28_alt_x29__1_" fill="#42C0EF" d="M445.496,235.646c27.533-2.294,46.203-14.796,53.369-31.776
	c-9.932,6.105-40.734,12.761-57.77,6.412c-0.816-3.992-1.76-7.795-2.656-11.221c-12.996-47.617-57.376-85.986-103.924-81.342
	c3.771-1.524,7.605-2.939,11.408-4.212c5.124-1.847,35.172-6.742,30.426-17.318c-3.992-9.334-40.672,7.041-47.602,9.186
	c9.131-3.418,24.217-9.327,25.852-19.809c-14.002,1.901-27.722,8.518-38.314,18.12c3.804-4.118,6.727-9.13,7.324-14.537
	c-37.277,23.801-59.059,71.834-76.69,118.414c-13.83-13.413-26.087-23.981-37.088-29.835
	c-30.865-16.564-67.78-33.842-125.722-55.357c-1.776,19.181,9.476,44.663,41.896,61.635c-7.024-0.943-19.864,1.131-30.142,3.599
	c4.18,21.97,17.853,40.058,54.893,48.811c-16.925,1.131-25.663,4.966-33.583,13.248c7.669,15.283,26.465,33.269,60.3,29.56
	c-37.575,16.234-15.323,46.25,15.275,41.756c-52.19,53.918-134.491,49.942-181.747,4.871
	c123.396,168.105,391.592,99.414,431.539-62.515c29.953,0.251,47.57-10.388,58.461-22.096
	C483.778,244.18,458.76,241.146,445.496,235.646z"/>
</svg>
