<?xml version="1.0" encoding="utf-8"?>
<!-- Generator: Adobe Illustrator 16.0.0, SVG Export Plug-In . SVG Version: 6.00 Build 0)  -->
<!DOCTYPE svg PUBLIC "-//W3C//DTD SVG 1.1//EN" "http://www.w3.org/Graphics/SVG/1.1/DTD/svg11.dtd">
<svg version="1.1" id="Layer_1" xmlns="http://www.w3.org/2000/svg" xmlns:xlink="http://www.w3.org/1999/xlink" x="0px" y="0px"
	 width="512px" height="512px" viewBox="0 0 512 512" enable-background="new 0 0 512 512" xml:space="preserve">
<path fill="#BE2026" d="M150.748,68.407c-53.297,21.098-89.527,61.812-99.641,116.591c-6.203,33.642-3.833,70.404,11.023,101.814
	c3.319,6.933,7.27,13.668,12.011,19.932c2.252,3.003,4.741,5.926,7.408,8.652c4.741-1.68,9.265-3.773,13.65-6.242
	c18.016-10.193,31.311-25.819,46.739-39.015c-51.598-59.767,3.082-133.758,71.471-150.292
	c63.648-15.33,149.896,11.141,169.217,76.607c7.98,27.113,2.766,57.11-19.36,76.746c-11.575,10.312-26.273,17.107-41.78,19.873
	c-9.067,1.58-18.391,1.817-27.518,0.967c-5.137-0.573-10.193-1.401-15.211-2.548c-8.454-2.015-15.98-1.757-15.98-10.864v-71.649
	v-35.766c0-7.279,0.71-5.976-5.354-6.696c-4.82-0.583-9.6-1.057-14.381-1.393c-16.91-1.324-34.531-2.232-51.302,0.632
	c-6.262,1.057-6.657,0.099-6.657,6.895v16.495v40.141c0,39.943,3.042,80.42,1.382,120.344c-0.513,11.893-0.83,40.437-14.144,46.324
	c-15.409,6.834-29.079-7.546-43.302-10.608c1.956,20.091-10.588,59.757,12.762,69.911c21.453,9.283,46.086,12.682,68.666,5.058
	c47.292-16.062,62.601-68.707,56.615-112.009c73.053,21.869,151.912-14.696,183.124-80.637
	c22.244-46.976,12.859-105.291-20.624-145.214C366.861,47.626,239.525,33.274,150.748,68.407"/>
</svg>
