<?xml version="1.0" encoding="utf-8"?>
<!-- Generator: Adobe Illustrator 17.1.0, SVG Export Plug-In . SVG Version: 6.00 Build 0)  -->
<!DOCTYPE svg PUBLIC "-//W3C//DTD SVG 1.1//EN" "http://www.w3.org/Graphics/SVG/1.1/DTD/svg11.dtd">
<svg version="1.1" id="Layer_1" xmlns="http://www.w3.org/2000/svg" xmlns:xlink="http://www.w3.org/1999/xlink" x="0px" y="0px"
	 viewBox="0 0 512 512" style="enable-background:new 0 0 512 512;" xml:space="preserve">
<style type="text/css">
	.st0{fill:#3F3F40;}
</style>
<g>
	<g>
		<path class="st0" d="M170.9,459.9c-3-2.6-6.2-5.1-9.4-7.4c-21.4-15.4-47.1-23.7-73.7-23.7c-11.4,0-22.7,1.5-33.5,4.5
			c-18.4,5-35.5,14.2-50.1,27c-0.1,0.7-0.1,1.3-0.1,1.9c0,13.5,11,24.5,24.5,24.5c5.8,0,11.4-2.1,15.9-5.9l2.8-2.3l2.8,2.3
			c4.4,3.8,10.1,5.9,15.9,5.9c6.9,0,13.5-3,18.2-8.1l3.2-3.5l3.2,3.5c4.7,5.2,11.3,8.1,18.2,8.1c6,0,11.7-2.2,16.2-6.2l2.8-2.5
			l2.8,2.5c4.5,4,10.2,6.2,16.2,6.2c12.6,0,23-9.6,24.3-21.8c0.1-0.9,0.2-1.8,0.2-2.7c0-0.5,0-1-0.1-1.6L170.9,459.9z"/>
		<path class="st0" d="M507.7,459.9c-13.7-12-29.7-20.7-46.8-25.8c-11.7-3.5-23.9-5.3-36.3-5.3c-25.6,0-50.4,7.7-71.3,22
			c-4.3,2.9-8.4,6.1-12.3,9.5l0,0.3c0,0.5-0.1,1.1-0.1,1.6c0,0.9,0.1,1.8,0.2,2.7c1.3,12.2,11.7,21.8,24.3,21.8
			c5.8,0,11.4-2.1,15.9-5.9l2.8-2.4l2.8,2.4c4.4,3.8,10.1,5.9,15.9,5.9c6.9,0,13.5-3,18.2-8.1l3.2-3.5l3.2,3.5
			c4.6,5.2,11.3,8.1,18.2,8.1c6,0,11.7-2.2,16.2-6.2l2.8-2.5l2.8,2.5c4.5,4,10.2,6.2,16.2,6.2c13.5,0,24.5-11,24.5-24.5
			C507.8,461.4,507.8,460.7,507.7,459.9z"/>
		<path class="st0" d="M376.9,362.2c0.1,0,0.3,0,0.4,0c2.3,7.2,3.6,14.9,3.6,22.9c0,0.2,0,0.5,0,0.7c0,0.2,0,0.4,0,0.6
			c0,19-7.1,36.3-18.8,49.2c19.1-10,40.5-15.3,62.4-15.3c15,0,29.6,2.5,43.5,7.2c8.2-9.1,13.2-21.2,13.2-34.4
			c0-28.5-23.2-51.6-51.6-51.6c-4.9,0-9.8,0.7-14.6,2.1l-3.3,1c-25.5-53-77.6-90.8-139.1-96c13.6-15.8,33.1-25.3,53.8-26.4
			c-3.1-1.7-6.2-3.3-9.6-4.6c-36.1-14-76.2,1.3-94.5,34.2c-29.6,6.3-56.4,20.4-78.1,40c-14.3-20.5-22.8-45.4-22.8-72.3
			c0-69.8,56.6-126.4,126.4-126.4c31.1,0,59.7,11.3,81.7,29.9c3,2.5,5.9,5.2,8.6,8c6.4,4.3,14,6.9,22.3,6.9
			c21.9,0,39.6-17.7,39.6-39.6c0-6.5-1.6-12.7-4.4-18.1c-2.3-4-5.2-7.6-8.6-10.7l0-0.2c-1.7-1.5-3.5-2.9-5.3-4.3
			c-32.3-25.3-72.3-39.2-113.5-39.3c-26.1-0.1-52.7,5.4-78,17.1c-10.7,5-20.7,10.9-30,17.5c-4.5,3.2-8.8,6.6-12.9,10.1
			c-14.9,12.8-27.4,27.7-37.4,44.1c-0.9,1.6-1.9,3.2-2.8,4.7c-1.4,2.5-2.9,5.1-4.2,7.7c-8.1,16.1-13.9,33.3-17.1,51.1
			c-0.3,1.7-0.6,3.3-0.8,5c-5.2,34.6-0.7,71,15,105.1c5.3,11.5,11.7,22.2,18.9,32c-5.5,7.8-10.4,16.1-14.6,24.8l-3.2-1
			c-4.8-1.4-9.8-2.2-14.8-2.2c-28.5,0-51.6,23.2-51.6,51.6c0,12.7,4.7,24.4,12.3,33.4c13-4.1,26.6-6.2,40.4-6.2
			c22.8,0,45,5.8,64.7,16.6c-13.2-13.2-21.5-31.6-21.5-52.1c0-0.2,0-0.5,0-0.7c0-0.2,0-0.4,0-0.6c0-3.1,0.2-6.1,0.6-9
			c0.1,0,0.1,0,0.2,0c0.2-1.3,0.4-2.5,0.6-3.7c5.1-26.5,24.1-47.8,48.9-55.4c6.5-2,13.3-3.1,20.4-3.1c22.2,0,42,10.6,55,27
			c13-15.6,32.2-25.4,53.7-25.4C341.1,313.7,367.2,333.9,376.9,362.2z"/>
		<path class="st0" d="M315.1,367c-2.7-1.2-5.7-1.9-8.9-1.9c-4.1,0-7.8,1.1-11.1,3.1c-1.3,0.8-2.6,1.7-3.7,2.7
			c0.4,0.1,0.9,0.2,1.3,0.2c6.7,1.2,13.2,4.3,18.5,9.3c1.3,1.2,2.4,2.4,3.4,3.7c-0.5-0.2-1-0.3-1.5-0.4c-9.6-2.8-20.1-1.7-28.8,3.4
			c0,0.4,0,0.9,0.1,1.3c0.7,11.4,10.2,20.5,21.8,20.5c11.8,0,21.5-9.4,21.8-21.2c0-0.2,0-0.5,0-0.7
			C328.1,378.1,322.8,370.4,315.1,367z"/>
		<path class="st0" d="M218.7,368.6c-3.4-2.2-7.4-3.4-11.7-3.4c-5,0-9.6,1.7-13.3,4.5c0.5,0.1,0.9,0.2,1.4,0.3
			c2.4,0.6,4.8,1.5,7.1,2.6c3.1,1.5,6.1,3.5,8.7,6c1.3,1.2,2.4,2.5,3.4,3.8c-0.5-0.2-1-0.3-1.5-0.4c-9.1-2.7-19.1-1.8-27.6,2.8
			c-0.1,0.7-0.1,1.5-0.1,2.3c0,0.2,0,0.4,0,0.6c0.3,11.8,10,21.2,21.8,21.2c11.1,0,20.3-8.3,21.7-19.1c0.1-0.6,0.1-1.3,0.2-2
			c0-0.3,0-0.6,0-0.8c0-6-2.4-11.4-6.3-15.3C221.4,370.5,220.1,369.5,218.7,368.6z"/>
	</g>
</g>
</svg>
