<?xml version="1.0" encoding="utf-8"?>
<!-- Generator: Adobe Illustrator 16.0.0, SVG Export Plug-In . SVG Version: 6.00 Build 0)  -->
<!DOCTYPE svg PUBLIC "-//W3C//DTD SVG 1.1//EN" "http://www.w3.org/Graphics/SVG/1.1/DTD/svg11.dtd">
<svg version="1.1" id="Layer_1" xmlns="http://www.w3.org/2000/svg" xmlns:xlink="http://www.w3.org/1999/xlink" x="0px" y="0px"
	 width="512px" height="512px" viewBox="0 0 512 512" enable-background="new 0 0 512 512" xml:space="preserve">
<path fill="#2072B8" d="M478.079,109.154c0-38.885-35.142-74.026-74.047-74.026H107.761c-38.968,0-74.088,35.141-74.088,74.026
	v296.312c0,38.927,35.121,74.089,74.088,74.089h148.094v-167.91h-54.315v-74.067h54.315v-28.895
	c0-49.765,37.416-94.565,83.354-94.565h59.899v74.047H339.21c-6.536,0-14.21,7.994-14.21,19.918v29.495h74.109v74.067H325v167.91
	h79.032c38.905,0,74.047-35.162,74.047-74.089V109.154z"/>
</svg>
