<?xml version="1.0" encoding="utf-8"?>
<!-- Generator: Adobe Illustrator 16.0.0, SVG Export Plug-In . SVG Version: 6.00 Build 0)  -->
<!DOCTYPE svg PUBLIC "-//W3C//DTD SVG 1.1//EN" "http://www.w3.org/Graphics/SVG/1.1/DTD/svg11.dtd">
<svg version="1.1" id="Layer_1" xmlns="http://www.w3.org/2000/svg" xmlns:xlink="http://www.w3.org/1999/xlink" x="0px" y="0px"
	 width="512px" height="512px" viewBox="0 0 512 512" enable-background="new 0 0 512 512" xml:space="preserve">
<path fill="#010101" d="M67.841,161.559c0-24.462,5.63-43.564,16.919-57.383c11.291-13.782,23.657-24.001,37.174-30.588
	C135.408,67,153.751,62.139,176.947,59H285.17v1.874c0,6.278-4.254,10.372-12.707,12.252c-8.467,1.882-16.464,3.44-24.006,4.705
	c-2.492,0-5.781,0.151-9.875,0.459c-4.094,0.345-6.737,1.114-8,2.371c13.782,6.895,22.587,16.31,26.336,28.218
	c3.793,11.907,5.668,26.334,5.668,43.262c0,20.095-3.139,35.758-9.417,47.048s-13.782,20.403-22.587,27.299
	c-5.014,5.013-9.265,9.264-12.711,12.711c-3.449,3.447-5.171,7.656-5.171,12.676c0,5.049,2.371,9.875,7.082,14.582
	c4.711,4.72,10.184,9.879,16.461,15.547c10.642,8.769,21.473,19.757,32.459,32.92c10.951,13.171,16.465,30.092,16.465,50.805
	c0,43.91-18.221,74.347-54.591,91.269c-14.437,6.894-28.218,11.289-41.382,13.171c-13.171,1.875-22.896,2.83-29.173,2.83
	c-1.264,0-2.031-0.147-2.333-0.501c-0.347-0.308-0.806-0.454-1.416-0.454L154.397,473c-4.404,0-12.554-0.61-24.461-1.873
	c-11.944-1.265-24.153-4.86-36.714-10.829c-12.562-5.969-23.657-14.744-33.381-26.343c-9.725-11.601-14.586-27.776-14.586-48.491
	c0-20.058,5.322-35.906,16.001-47.503c10.642-11.599,23.046-20.375,37.137-26.345c14.126-5.969,28.369-9.717,42.841-11.29
	c14.392-1.573,25.381-2.33,32.921-2.33h0.918c-4.404-5.666-7.504-11.29-9.378-16.957c-1.911-5.629-3.174-10.642-3.792-15.045
	c-1.264-5.013-1.572-10.033-0.919-15.045h-6.585c-5.666,0-13.358-0.806-23.046-2.372c-9.761-1.528-19.291-5.472-28.714-11.749
	C79.441,223.034,67.841,197.926,67.841,161.559z M241.873,374.178c-1.264-16.311-8.001-29.475-20.217-39.506
	c-12.253-10.034-28.405-15.046-48.464-15.046h-7.504c-10.68,0.609-20.554,2.828-29.669,6.585c-9.07,3.747-17.07,8.77-23.965,15.045
	c-14.436,13.173-21.015,27.909-19.758,44.22c1.227,16.31,9.529,28.865,24.92,37.634c15.354,8.805,33.998,12.554,55.968,11.29
	c21.324-1.265,38.438-7.541,51.3-18.795C237.319,404.306,243.137,390.486,241.873,374.178z M213.662,138.971
	c-5.666-20.059-13.013-33.54-22.127-40.462c-9.07-6.895-20.864-10.335-35.255-10.335c-3.792,0-6.931,0.345-9.417,0.955
	c-12.554,3.749-21.631,13.474-27.299,29.173c-5.012,15.656-5.321,32.312-0.918,49.842c4.366,16.309,11.748,29.632,22.09,40.004
	c10.372,10.334,21.473,15.505,33.418,15.505c3.749,0,6.585-0.31,8.459-0.918c13.171-3.792,23.046-13.969,29.633-30.587
	C218.826,175.527,219.285,157.802,213.662,138.971z M466.746,220.815v44.22h-70.557v70.592h-44.217v-70.592h-70.592v-44.22h70.592
	V150.26h44.217v70.555H466.746z"/>
</svg>
