<?xml version="1.0" encoding="utf-8"?>
<!-- Generator: Adobe Illustrator 16.0.0, SVG Export Plug-In . SVG Version: 6.00 Build 0)  -->
<!DOCTYPE svg PUBLIC "-//W3C//DTD SVG 1.1//EN" "http://www.w3.org/Graphics/SVG/1.1/DTD/svg11.dtd">
<svg version="1.1" id="Layer_1" xmlns="http://www.w3.org/2000/svg" xmlns:xlink="http://www.w3.org/1999/xlink" x="0px" y="0px"
	 width="512px" height="512px" viewBox="0 0 512 512" enable-background="new 0 0 512 512" xml:space="preserve">
<g>
	<path d="M33.215,281.659h-14.58c-2.747,0-5.573,2.177-6.27,4.837L7,306.84c-0.703,2.66,0.977,4.844,3.721,4.844h14.197
		c2.743,0,5.598-2.171,6.337-4.818l5.623-20.382C37.613,283.836,35.958,281.659,33.215,281.659z"/>
	<path d="M50.375,221.626H19.539c-2.753,0-5.652,2.158-6.441,4.79l-6.159,20.441c-0.789,2.632,0.814,4.79,3.565,4.79h31.202
		c2.743,0,5.629-2.171,6.394-4.809l5.891-20.4C54.754,223.791,53.118,221.626,50.375,221.626z"/>
	<path d="M10.5,191.608h48.181c2.756,0,5.604-2.17,6.343-4.825l5.649-20.375c0.735-2.651-0.913-4.821-3.669-4.821H18.727
		c-2.752,0-5.601,2.17-6.324,4.828l-5.579,20.362C6.096,189.438,7.75,191.608,10.5,191.608z"/>
	<path d="M406.923,322.129c-21.299,0-38.548,16.626-38.548,37.135c0,20.496,17.249,37.122,38.548,37.122
		c21.298,0,38.547-16.626,38.547-37.122C445.47,338.755,428.221,322.129,406.923,322.129z"/>
	<path d="M149.566,322.129c-21.282,0-38.541,16.626-38.541,37.135c0,20.496,17.259,37.122,38.541,37.122
		c21.295,0,38.547-16.626,38.547-37.122C188.114,338.755,170.861,322.129,149.566,322.129z"/>
	<path d="M364.359,135.219c2.208-10.779-4.984-19.604-15.996-19.604H115.907c-11.008,0-21.823,8.825-24.025,19.604l-41.87,204.44
		c-2.205,10.775,4.994,19.604,16.002,19.604h17.434h12.568c0-28.759,24.022-52.144,53.55-52.144
		c29.531,0,53.557,23.385,53.557,52.144h95.343h20.083l9.637-46.899h-0.102L364.359,135.219z"/>
	<path d="M503.049,286.083L460.97,184.747c-2.107-5.083-8.345-9.236-13.846-9.236h-67.267c-5.499,0-10.884,4.414-11.953,9.812
		l-32.47,164.119c-0.095,0.439-0.095,0.872-0.12,1.306l-1.75,8.51h9.923h9.878c0-28.739,24.022-52.137,53.558-52.137
		c29.527,0,53.556,23.397,53.556,52.137h23.017c5.5,0,10.923-4.404,12.056-9.789l9.287-44.353
		C505.964,299.724,505.162,291.156,503.049,286.083z M471.058,261.47l-87.189-23.797c-2.66-0.729-4.437-3.539-3.953-6.244
		l5.537-30.986c0.484-2.705,3.126-4.921,5.888-4.921h51.959c2.756,0,5.856,2.079,6.894,4.628l23.793,58.01
		C475.023,260.708,473.706,262.201,471.058,261.47z"/>
</g>
</svg>
