<?xml version="1.0" encoding="utf-8"?>
<!-- Generator: Adobe Illustrator 16.0.0, SVG Export Plug-In . SVG Version: 6.00 Build 0)  -->
<!DOCTYPE svg PUBLIC "-//W3C//DTD SVG 1.1//EN" "http://www.w3.org/Graphics/SVG/1.1/DTD/svg11.dtd">
<svg version="1.1" id="Layer_1" xmlns="http://www.w3.org/2000/svg" xmlns:xlink="http://www.w3.org/1999/xlink" x="0px" y="0px"
	 width="512px" height="512px" viewBox="0 0 512 512" enable-background="new 0 0 512 512" xml:space="preserve">
<path fill="#DBDADA" stroke="#DBDADA" stroke-miterlimit="10" d="M501.165,264.017L381.9,146.249l-1.35-0.729
	c0,0-15.924-5.446-41.045-10.783c-0.02,0.083-1.379,5.082-3.851,11.817l-71.642-28.149v-18.252c0.305-0.827,3.053-2.807,4.707-3.979
	c6.224-4.471,15.618-11.226,15.618-26.49c0-15.54-12.644-28.165-28.188-28.165c-15.54,0-28.174,12.625-28.174,28.165
	c0,4.343,3.511,7.858,7.854,7.858c4.338,0,7.858-3.516,7.858-7.858c0-6.854,5.593-12.467,12.467-12.467
	c6.889,0,12.477,5.613,12.477,12.467c0,6.874-3.279,9.552-9.069,13.728c-4.757,3.407-11.266,8.075-11.266,16.8v18.203l-69.879,27.46
	c-1.561-3.654-3.137-7.469-4.535-11.128c-13.334,3.083-26.569,7.13-39.455,12.556l-2.526,1.398L11.165,264.578l84.463,88.009
	l37.83-36.318l0.192,154.018l247.176-0.296l-0.177-152.393l36.259,34.596L501.165,264.017z M256.165,132.216L329.461,161
	c-1.723,3.457-3.604,6.893-5.711,10.015h-0.01c-0.336,0.596-0.759,1.118-1.104,1.704H191.589c-1.6-2.644-3.171-5.318-4.52-8.154
	l-0.211-0.01c0,0-0.817-1.714-2.029-4.318L256.165,132.216z M203.736,188.446h107.034c-14.2,14.801-33.147,23.718-53.833,23.732
	C236.622,212.208,217.932,203.134,203.736,188.446z"/>
</svg>
