<?xml version="1.0" encoding="utf-8"?>
<!-- Generator: Adobe Illustrator 16.0.0, SVG Export Plug-In . SVG Version: 6.00 Build 0)  -->
<!DOCTYPE svg PUBLIC "-//W3C//DTD SVG 1.1//EN" "http://www.w3.org/Graphics/SVG/1.1/DTD/svg11.dtd">
<svg version="1.1" id="Layer_1" xmlns="http://www.w3.org/2000/svg" xmlns:xlink="http://www.w3.org/1999/xlink" x="0px" y="0px"
	 width="512px" height="512px" viewBox="0 0 512 512" enable-background="new 0 0 512 512" xml:space="preserve">
<path d="M256,11C120.679,11,11,120.679,11,255.981C11,391.302,120.679,501,256,501s245-109.698,245-245.019
	C501,120.679,391.321,11,256,11z M394.228,185.104c0.137,3.06,0.207,6.135,0.207,9.227c0,94.247-71.738,202.927-202.923,202.927
	c-40.276,0-77.766-11.809-109.329-32.047c5.58,0.662,11.256,1,17.014,1c33.416,0,64.168-11.402,88.577-30.531
	c-31.21-0.574-57.548-21.197-66.625-49.531c4.355,0.832,8.823,1.281,13.419,1.281c6.504,0,12.806-0.873,18.79-2.502
	c-32.626-6.555-57.211-35.379-57.211-69.935c0-0.301,0-0.6,0.007-0.897c9.615,5.342,20.612,8.55,32.303,8.921
	c-19.138-12.79-31.729-34.62-31.729-59.364c0-13.071,3.518-25.323,9.657-35.856c35.176,43.15,87.729,71.543,147.003,74.519
	c-1.216-5.221-1.847-10.664-1.847-16.254c0-39.387,31.934-71.319,71.322-71.319c20.514,0,39.05,8.661,52.06,22.521
	c16.245-3.198,31.509-9.133,45.291-17.307c-5.326,16.656-16.635,30.632-31.359,39.459c14.427-1.724,28.172-5.558,40.962-11.23
	C420.256,162.487,408.165,175.048,394.228,185.104z"/>
</svg>
