<?xml version="1.0" encoding="utf-8"?>
<!-- Generator: Adobe Illustrator 16.0.0, SVG Export Plug-In . SVG Version: 6.00 Build 0)  -->
<!DOCTYPE svg PUBLIC "-//W3C//DTD SVG 1.1//EN" "http://www.w3.org/Graphics/SVG/1.1/DTD/svg11.dtd">
<svg version="1.1" id="Layer_1" xmlns="http://www.w3.org/2000/svg" xmlns:xlink="http://www.w3.org/1999/xlink" x="0px" y="0px"
	 width="512px" height="512px" viewBox="0 0 512 512" enable-background="new 0 0 512 512" xml:space="preserve">
<g>
	<path fill="#C9E7DE" d="M213.509,258.641c-21.32-21.452-34.526-51.062-34.526-83.695c0-42.419,22.333-79.527,55.772-100.524
		c-15.113-18.546-38.106-30.417-63.901-30.417c-45.516,0-82.418,36.903-82.418,82.403c0,28.906,14.864,54.29,37.372,69.021
		c-59.763,38.033-97.693,138.763-97.693,138.763c-6.397,16.962,3.199,30.857,21.306,30.857h83.724
		c2.142-4.006,4.343-8.1,6.735-12.252C157.884,321.234,182.153,285.052,213.509,258.641"/>
	<path fill="#C9E7DE" d="M482.2,432.646c0,0-46.425-123.18-119.481-169.678c27.512-17.989,45.706-49.081,45.706-84.399
		c0-55.669-45.119-100.789-100.788-100.789c-55.67,0-100.789,45.119-100.789,100.789c0,35.318,18.18,66.41,45.706,84.399
		c-73.071,46.498-119.481,169.678-119.481,169.678c-7.835,20.748,3.932,37.725,26.059,37.725h296.996
		C478.297,470.371,490.021,453.395,482.2,432.646"/>
</g>
</svg>
