<?xml version="1.0" encoding="utf-8"?>
<!-- Generator: Adobe Illustrator 16.0.0, SVG Export Plug-In . SVG Version: 6.00 Build 0)  -->
<!DOCTYPE svg PUBLIC "-//W3C//DTD SVG 1.1//EN" "http://www.w3.org/Graphics/SVG/1.1/DTD/svg11.dtd">
<svg version="1.1" id="Layer_1" xmlns="http://www.w3.org/2000/svg" xmlns:xlink="http://www.w3.org/1999/xlink" x="0px" y="0px"
	 width="512px" height="512px" viewBox="0 0 512 512" enable-background="new 0 0 512 512" xml:space="preserve">
<g>
	<path d="M256.013,509.289c-6.629,0-12.99-2.637-17.678-7.325l-138.19-138.202c-9.767-9.768-9.767-25.59,0-35.357
		c9.767-9.766,25.589-9.766,35.356,0l120.512,120.524L376.499,328.43c9.768-9.766,25.59-9.766,35.356,0
		c9.767,9.768,9.767,25.59,0,35.357L273.702,501.964C269.002,506.652,262.643,509.289,256.013,509.289z"/>
	<path d="M273.702,10.036l138.153,138.177c9.767,9.767,9.767,25.589,0,35.356c-9.767,9.767-25.589,9.767-35.356,0L256.013,63.071
		L135.501,183.595c-9.767,9.767-25.589,9.767-35.356,0c-9.767-9.767-9.767-25.589,0-35.356l138.19-138.203
		c4.688-4.688,11.049-7.325,17.678-7.325C262.643,2.711,269.002,5.348,273.702,10.036z"/>
</g>
<circle cx="256" cy="256" r="35.5"/>
</svg>
