<?xml version="1.0" encoding="utf-8"?>
<!-- Generator: Adobe Illustrator 16.0.0, SVG Export Plug-In . SVG Version: 6.00 Build 0)  -->
<!DOCTYPE svg PUBLIC "-//W3C//DTD SVG 1.1//EN" "http://www.w3.org/Graphics/SVG/1.1/DTD/svg11.dtd">
<svg version="1.1" id="Layer_1" xmlns="http://www.w3.org/2000/svg" xmlns:xlink="http://www.w3.org/1999/xlink" x="0px" y="0px"
	 width="512px" height="512px" viewBox="0 0 512 512" enable-background="new 0 0 512 512" xml:space="preserve">
<path fill="#010101" d="M435.223,394.562c-1.265-18.622-4.318-38.254-9.381-57.087c-2.876-10.702-13.318-38.373-12.079-65.072
	c1.239-26.687,3.921-46.233,6.505-51.002c0.032,0,19.206-0.712,21.366,0c2.17,0.712,5.271,9.652,5.271,9.652h4.616
	c0.801,31.48,2.902,59.544,6.438,72.499c3.368,12.284,17.025,15.917,24.451,7.641c1.788-2.005,3.514-5.982,4.57-8.645
	c10.427-26.324,11.253-177.205,0-203.832c-2.609-6.175-7.561-12.224-14.317-12.224c-0.22,0-0.439,0.024-0.659,0.03
	c-0.209-0.011-0.429-0.03-0.648-0.03c-6.316,0-11.305,5.825-13.396,12.278c-3.388,10.486-5.568,38.795-6.411,71.435v-0.41h-4.643
	c0,0-3.102,8.94-5.271,9.658c-2.16,0.712-21.334,0-21.366,0v-0.006c0,0-8.837-29.905-44.72-35.404v-5.963h-2.995V97.273h2.875
	v-4.292h-14.312V82.979h-4.131v10.002H343.39v4.292h2.871v40.808h-4.012v5.65c-50.272,1.057-119.259,22.167-160.765,27.55v-63.817
	h-4.128v64.318c-7.888,0.857-13.967,0.984-17.551,0.042c-12.594-3.314-23.994-10.788-35.024-18.285
	c-5.538-3.761-11.046-7.593-16.723-11.064c-3.846-2.349-11.277-8.481-15.567-8.306c-2.058,0.077-6.67,0.102-11.815,0.102v-22.395
	h3.404v-6.435H66.426v6.435h3.412v22.365c-5.998-0.036-10.79-0.072-10.79-0.072v47.018c-4.079-3.707-16.558-14.656-20.828-13.938
	c-5.135,0.875-4.379,5.251-4.236,6.09c0.142,0.845,3.116,4.841,7.592,0.978c2.278-1.962,13.489,8.343,17.471,12.139v52.819h-8.675
	v11.204H40.05v-2.62h-4.542v17.639h4.542v-2.385h10.323v10.721h8.675v48.843h13.861v70.182H52.365v-0.431l-18.903-0.105L16.887,429
	h470.92l-16.199-34.232L435.223,394.562z M468.47,120.919l3.304,33.805l-7.969,11.855l-3.304-11.855L468.47,120.919z
	 M463.805,232.044l7.969,11.861l-3.304,33.799l-7.969-33.799L463.805,232.044z M39.47,173.032c-0.484,1.334-1.817,1.968-2.973,1.4
	c-1.158-0.561-1.702-2.1-1.215-3.434c0.486-1.333,1.819-1.961,2.978-1.395C39.415,170.165,39.956,171.698,39.47,173.032z
	 M293.102,393.771l-163.612-0.912H80.478v-70.182h12.46c0.369-0.286,9.701-7.682,11.323-23.333
	c1.655-15.973,6.259-49.426,24.572-57.684c14.649-6.61,42.33-10.25,111.492-6.912c36.907,1.781,70.594,4.787,79.701,19.546
	C336.215,280.547,324.492,334.325,293.102,393.771z"/>
</svg>
